<svg version="1.1" xmlns="http://www.w3.org/2000/svg" width="106" height="28" viewBox="0 0 338 60">
<defs>
	<linearGradient id="a" x1="0" x2="20" y1="0" y2="20" gradientUnits="userSpaceOnUse">
			<stop stop-color="#FBD57F" />
			<stop offset="1" stop-color="#D17F0D" />
	</linearGradient>
</defs>
<path fill="url(#a)" fill-rule="evenodd" clip-rule="evenodd" transform="scale(3.5) translate(0 -1)" d="M4.17157 3.17157C3 4.34315 3 6.22876 3 10V14C3 17.7712 3 19.6569 4.17157 20.8284C5.34315 22 7.22876 22 11 22H13C16.7712 22 18.6569 22 19.8284 20.8284C21 19.6569 21 17.7712 21 14V10C21 6.22876 21 4.34315 19.8284 3.17157C18.6569 2 16.7712 2 13 2H11C7.22876 2 5.34315 2 4.17157 3.17157ZM7.25 8C7.25 7.58579 7.58579 7.25 8 7.25H16C16.4142 7.25 16.75 7.58579 16.75 8C16.75 8.41421 16.4142 8.75 16 8.75H8C7.58579 8.75 7.25 8.41421 7.25 8ZM7.25 12C7.25 11.5858 7.58579 11.25 8 11.25H16C16.4142 11.25 16.75 11.5858 16.75 12C16.75 12.4142 16.4142 12.75 16 12.75H8C7.58579 12.75 7.25 12.4142 7.25 12ZM8 15.25C7.58579 15.25 7.25 15.5858 7.25 16C7.25 16.4142 7.58579 16.75 8 16.75H13C13.4142 16.75 13.75 16.4142 13.75 16C13.75 15.5858 13.4142 15.25 13 15.25H8Z" />

<path fill-rule="evenodd" fill="#ffffff" transform="scale(0.8) translate(125 5)" d="M 98.096 61.915 L 98.096 39.356 A 71.324 71.324 0 0 1 98.365 32.967 Q 98.642 29.886 99.207 27.257 A 33.613 33.613 0 0 1 100.049 24.073 Q 102.002 17.969 106.885 14.942 Q 110.491 12.706 116.174 12.122 A 41.949 41.949 0 0 1 120.459 11.915 A 29.328 29.328 0 0 1 126.541 12.521 A 23.74 23.74 0 0 1 131.323 14.063 A 17.896 17.896 0 0 1 137.291 18.295 A 17.271 17.271 0 0 1 138.916 20.362 A 16.106 16.106 0 0 1 141.34 26.441 A 22.127 22.127 0 0 1 141.699 30.518 L 141.699 41.7 L 123.877 41.7 L 123.877 31.446 A 14.609 14.609 0 0 0 123.765 29.585 Q 123.591 28.23 123.145 27.174 A 2.66 2.66 0 0 0 121.247 25.587 Q 120.734 25.454 120.103 25.441 A 6.684 6.684 0 0 0 119.971 25.44 Q 116.377 25.44 115.789 29.709 A 13.492 13.492 0 0 0 115.674 31.544 L 115.674 67.042 A 8.979 8.979 0 0 0 116.27 70.328 A 8.544 8.544 0 0 0 116.65 71.168 A 3.511 3.511 0 0 0 117.642 72.376 Q 118.531 73.048 119.873 73.048 A 4.46 4.46 0 0 0 121.113 72.886 A 3.058 3.058 0 0 0 123.071 71.217 A 8.594 8.594 0 0 0 123.837 68.758 A 11.467 11.467 0 0 0 123.975 66.944 L 123.975 54.639 L 141.699 54.639 L 141.699 67.432 A 22.604 22.604 0 0 1 141.152 72.522 A 17.106 17.106 0 0 1 138.989 77.808 A 17.698 17.698 0 0 1 131.543 84.425 A 22.731 22.731 0 0 1 124.738 86.448 A 29.08 29.08 0 0 1 120.703 86.719 Q 113.4 86.719 108.617 84.501 A 14.916 14.916 0 0 1 103.247 80.421 A 20.242 20.242 0 0 1 99.771 73.917 Q 98.096 68.877 98.096 61.915 Z M 146.191 64.747 L 146.191 58.936 L 163.77 58.936 L 163.77 67.53 Q 163.77 69.262 164.242 70.475 A 4.678 4.678 0 0 0 164.746 71.436 A 3.141 3.141 0 0 0 166.685 72.724 A 5.141 5.141 0 0 0 167.871 72.852 A 3.487 3.487 0 0 0 169.869 72.301 Q 171.233 71.38 171.569 68.92 A 13.188 13.188 0 0 0 171.68 67.139 A 18.226 18.226 0 0 0 171.503 64.511 Q 171.085 61.651 169.678 59.986 A 28.061 28.061 0 0 0 166.991 57.234 A 35.536 35.536 0 0 0 164.795 55.421 L 155.469 48.243 A 32.91 32.91 0 0 1 152.025 45.177 Q 150.253 43.348 149.027 41.417 A 20.042 20.042 0 0 1 148.779 41.016 Q 147.102 38.232 146.65 33.856 A 33.557 33.557 0 0 1 146.484 30.421 A 21.744 21.744 0 0 1 146.943 25.835 Q 147.635 22.623 149.374 20.177 A 13.892 13.892 0 0 1 149.487 20.02 A 17.972 17.972 0 0 1 157.437 13.921 A 22.203 22.203 0 0 1 157.446 13.917 A 27.906 27.906 0 0 1 166.736 11.946 A 32.33 32.33 0 0 1 168.164 11.915 A 30.714 30.714 0 0 1 176.589 12.968 Q 186.036 15.668 188.545 25.289 A 31.225 31.225 0 0 1 189.453 33.155 L 189.453 34.522 L 171.387 34.522 L 171.387 31.739 Q 171.387 29.542 170.63 27.491 A 3.527 3.527 0 0 0 170.026 26.421 Q 169.351 25.624 168.221 25.475 A 4.161 4.161 0 0 0 167.676 25.44 A 5.063 5.063 0 0 0 166.185 25.641 Q 164.546 26.146 164.117 27.925 A 6.08 6.08 0 0 0 163.965 29.346 A 8.017 8.017 0 0 0 164.481 32.278 Q 165.211 34.153 166.975 35.464 A 9.123 9.123 0 0 0 167.09 35.548 L 177.93 43.458 A 35.118 35.118 0 0 1 186.45 52.149 A 18.243 18.243 0 0 1 188.963 57.748 Q 189.893 61.19 189.893 65.528 Q 189.893 73.649 186.272 78.734 A 16.456 16.456 0 0 1 184.009 81.3 Q 178.424 86.444 168.902 86.705 A 37.563 37.563 0 0 1 167.871 86.719 A 30.733 30.733 0 0 1 159.226 85.611 Q 149.654 82.801 147.111 72.866 A 32.813 32.813 0 0 1 146.191 64.747 Z M 212.842 85.938 L 195.557 85.938 L 195.557 0.001 L 229.932 0.001 L 229.932 16.749 L 212.842 16.749 L 212.842 30.421 L 229.053 30.421 L 229.053 46.973 L 212.842 46.973 L 212.842 85.938 Z M 249.805 85.938 L 233.105 85.938 L 241.406 0.001 L 270.557 0.001 L 278.711 85.938 L 262.451 85.938 L 261.23 72.071 L 250.879 72.071 L 249.805 85.938 Z M 23.047 85.938 L 0 85.938 L 0 0.001 L 23.633 0.001 A 26.63 26.63 0 0 1 28.983 0.504 Q 32.184 1.161 34.621 2.676 A 13.999 13.999 0 0 1 37.598 5.152 A 16.47 16.47 0 0 1 41.029 11.23 Q 42.285 15.085 42.285 20.216 L 42.285 60.45 A 56.154 56.154 0 0 1 41.868 67.536 Q 41.416 71.078 40.475 73.982 A 22.713 22.713 0 0 1 38.013 79.298 A 13.547 13.547 0 0 1 30.421 84.925 Q 28.023 85.685 25.074 85.875 A 31.545 31.545 0 0 1 23.047 85.938 Z M 48.438 64.014 L 48.438 34.62 A 29.9 29.9 0 0 1 49.221 27.581 A 20.66 20.66 0 0 1 54.248 18.092 A 19.111 19.111 0 0 1 64.616 12.459 A 28.319 28.319 0 0 1 70.312 11.915 A 27.658 27.658 0 0 1 77.001 12.678 A 18.893 18.893 0 0 1 86.426 18.092 A 20.826 20.826 0 0 1 91.596 28.206 A 30.466 30.466 0 0 1 92.236 34.62 L 92.236 64.014 A 33.976 33.976 0 0 1 91.187 72.861 Q 88.056 84.441 75.582 86.345 A 34.974 34.974 0 0 1 70.312 86.719 A 30.241 30.241 0 0 1 61.523 85.554 Q 51.862 82.617 49.334 72.276 A 34.866 34.866 0 0 1 48.438 64.014 Z M 17.285 15.04 L 17.285 70.753 L 20.264 70.753 Q 24.003 70.753 24.79 67.892 A 6.525 6.525 0 0 0 25 66.163 L 25 21.827 Q 25 17.53 23.853 16.285 A 2.917 2.917 0 0 0 22.874 15.615 Q 21.933 15.197 20.414 15.083 A 16.372 16.372 0 0 0 19.189 15.04 L 17.285 15.04 Z M 74.414 67.628 L 74.414 31.837 A 14.931 14.931 0 0 0 74.27 29.663 Q 73.879 27.019 72.426 26.031 A 3.668 3.668 0 0 0 70.312 25.44 Q 66.359 25.44 66.216 31.382 A 18.891 18.891 0 0 0 66.211 31.837 L 66.211 67.628 A 10.315 10.315 0 0 0 66.345 69.339 Q 66.568 70.664 67.163 71.656 A 3.14 3.14 0 0 0 69.411 73.167 A 5.081 5.081 0 0 0 70.313 73.243 A 4.755 4.755 0 0 0 71.536 73.096 A 3.087 3.087 0 0 0 73.462 71.656 Q 74.414 70.069 74.414 67.628 Z M 255.371 14.649 L 252.1 58.35 L 259.912 58.35 L 256.152 14.649 L 255.371 14.649 Z"/>	
</svg>
